<svg xmlns="http://www.w3.org/2000/svg" viewBox="0 0 64 64" role="img" aria-label="Canva">
  <defs>
    <linearGradient id="g" x1="0" y1="0" x2="1" y2="1">
      <stop offset="0" stop-color="#00c4cc"/>
      <stop offset="1" stop-color="#7d2ae8"/>
    </linearGradient>
  </defs>
  <circle cx="32" cy="32" r="30" fill="url(#g)"/>
  <path fill="#fff" d="M39.7 23.8c-1.6-1.7-3.9-2.7-6.5-2.7-5.4 0-9.8 4.7-9.8 10.6 0 5.8 4.4 10.6 9.8 10.6 2.7 0 4.9-.9 6.6-2.7.7-.7.7-1.8 0-2.5-.7-.7-1.8-.7-2.5 0-1 1-2.3 1.6-4.1 1.6-3.4 0-6.1-3.2-6.1-7 0-3.9 2.7-7 6.1-7 1.7 0 3.1.6 4.1 1.6.7.7 1.8.7 2.5 0 .6-.7.6-1.8-.1-2.5z"/>
</svg>
